# xmcd
#
# Track frame offsets:
#	150
#	21112
#	34506
#	51374
#	64636
#
# Disc length: 1035 seconds
#
# Revision: 0
# Processed by: cddbd v1.5.1PL0 Copyright (c) Steve Scherf et al.
# Submitted via: dBpowerAMP V4.0
#
DISCID=38040905
DTITLE=born from pain (original version) - immoratlity 
DYEAR=1999
DGENRE=House
TTITLE0=immortality
TTITLE1=monolith
TTITLE2=christborn
TTITLE3=darkest deception
TTITLE4=fallen angel
EXTD=
EXTT0=
EXTT1=
EXTT2=
EXTT3=
EXTT4=
PLAYORDER=
